STARTFONT 2.1
COMMENT $XConsortium: lubBI14.bdf,v 1.10 94/04/02 16:24:37 gildea Exp $
COMMENT  (c) Copyright Bigelow & Holmes 1986, 1985. Lucida is a registered
COMMENT  trademark of Bigelow & Holmes. See LEGAL NOTICE file for terms 
COMMENT  of the license. 
COMMENT  
COMMENT  Translation to ISO8859-2 by Cub Soft;  Petr.Kolar@vslib.cz
COMMENT  
FONT -B&H-LucidaBright-DemiBold-I-Normal--20-140-100-100-P-119-ISO8859-2
SIZE 14 100 100
FONTBOUNDINGBOX 36 23 -12 -4
STARTPROPERTIES 20
COMMENT Begin LogicalFontDescription
FONTNAME_REGISTRY ""
FOUNDRY "B&H"
FAMILY_NAME "LucidaBright"
WEIGHT_NAME "DemiBold"
SLANT "I"
SETWIDTH_NAME "Normal"
ADD_STYLE_NAME ""
PIXEL_SIZE 20
POINT_SIZE 140
RESOLUTION_X 100
RESOLUTION_Y 100
SPACING "P"
AVERAGE_WIDTH 119
CHARSET_REGISTRY "ISO8859"
CHARSET_ENCODING "2"
COMMENT END LogicalFontDescription
FONT_ASCENT 18
FONT_DESCENT 5
DEFAULT_CHAR 0
COPYRIGHT "Copyright Bigelow & Holmes 1986, 1985., Copyright 1996 Cub Soft"
FACE_NAME "Lucida Bright Demibold Italic"
ENDPROPERTIES
CHARS 191
STARTCHAR space
ENCODING 32
SWIDTH 333 0
DWIDTH 6 0
BBX 1 1 0 0
BITMAP
00
ENDCHAR
STARTCHAR exclam
ENCODING 33
SWIDTH 265 0
DWIDTH 5 0
BBX 6 15 1 0
BITMAP
1c
1c
38
38
38
38
30
30
30
20
20
00
00
f0
e0
ENDCHAR
STARTCHAR quotedbl
ENCODING 34
SWIDTH 451 0
DWIDTH 9 0
BBX 7 6 4 9
BITMAP
ee
e6
c6
46
46
44
ENDCHAR
STARTCHAR numbersign
ENCODING 35
SWIDTH 636 0
DWIDTH 13 0
BBX 12 15 2 0
BITMAP
0130
0320
0220
0640
0440
7ff0
0880
0980
1900
1100
ffe0
2200
6600
4400
cc00
ENDCHAR
STARTCHAR dollar
ENCODING 36
SWIDTH 636 0
DWIDTH 13 0
BBX 11 18 2 -2
BITMAP
0100
0fe0
1e60
3a60
3a60
3a00
1e00
1e00
0f00
0780
0780
09c0
0980
c980
cb00
fe00
0800
1000
ENDCHAR
STARTCHAR percent
ENCODING 37
SWIDTH 772 0
DWIDTH 15 0
BBX 15 15 2 0
BITMAP
3c06
760c
6718
e730
c660
6ec0
7980
01bc
0366
06c6
0cc6
18ce
30cc
60cc
c070
ENDCHAR
STARTCHAR ampersand
ENCODING 38
SWIDTH 773 0
DWIDTH 15 0
BBX 15 15 1 0
BITMAP
03e0
0670
0e70
0e70
0e60
0ec0
0f00
373e
671c
e398
e398
e1f0
e1e0
70e0
3f78
ENDCHAR
STARTCHAR apostrophe
ENCODING 39
SWIDTH 265 0
DWIDTH 5 0
BBX 4 6 3 9
BITMAP
70
70
70
20
60
c0
ENDCHAR
STARTCHAR parenleft
ENCODING 40
SWIDTH 336 0
DWIDTH 7 0
BBX 7 19 2 -4
BITMAP
02
04
0c
18
30
30
70
60
e0
e0
e0
e0
e0
e0
e0
60
60
20
10
ENDCHAR
STARTCHAR parenright
ENCODING 41
SWIDTH 336 0
DWIDTH 7 0
BBX 7 19 0 -4
BITMAP
08
08
0c
06
06
06
06
06
0e
0e
0e
0e
0c
1c
18
30
20
40
80
ENDCHAR
STARTCHAR asterisk
ENCODING 42
SWIDTH 434 0
DWIDTH 9 0
BBX 8 7 3 8
BITMAP
0c
49
eb
66
38
ee
48
ENDCHAR
STARTCHAR plus
ENCODING 43
SWIDTH 636 0
DWIDTH 12 0
BBX 12 13 1 0
BITMAP
0300
0300
0200
0200
0200
0200
fff0
0400
0400
0400
0400
0c00
0c00
ENDCHAR
STARTCHAR comma
ENCODING 44
SWIDTH 265 0
DWIDTH 5 0
BBX 4 8 1 -4
BITMAP
70
70
70
70
20
60
60
c0
ENDCHAR
STARTCHAR minus
ENCODING 45
SWIDTH 636 0
DWIDTH 12 0
BBX 12 1 1 6
BITMAP
fff0
ENDCHAR
STARTCHAR period
ENCODING 46
SWIDTH 265 0
DWIDTH 5 0
BBX 4 3 1 0
BITMAP
70
f0
e0
ENDCHAR
STARTCHAR slash
ENCODING 47
SWIDTH 515 0
DWIDTH 10 0
BBX 14 19 0 -4
BITMAP
000c
0008
0010
0030
0020
0040
00c0
0080
0100
0300
0200
0400
0c00
0800
1000
1000
2000
6000
c000
ENDCHAR
STARTCHAR zero
ENCODING 48
SWIDTH 623 0
DWIDTH 13 0
BBX 12 15 2 0
BITMAP
0780
0ce0
1860
3070
7070
7070
e070
e0f0
e0e0
e0e0
e0e0
e1c0
6180
7300
3e00
ENDCHAR
STARTCHAR one
ENCODING 49
SWIDTH 636 0
DWIDTH 13 0
BBX 8 15 3 0
BITMAP
3f
07
07
0e
0e
0e
0e
0e
0c
1c
1c
1c
1c
3c
ff
ENDCHAR
STARTCHAR two
ENCODING 50
SWIDTH 636 0
DWIDTH 13 0
BBX 12 15 1 0
BITMAP
0fc0
18e0
1070
1070
0070
00e0
00c0
0180
0600
0800
1000
2000
6000
ffc0
ffc0
ENDCHAR
STARTCHAR three
ENCODING 51
SWIDTH 636 0
DWIDTH 13 0
BBX 11 15 2 0
BITMAP
1f80
18e0
10e0
00e0
00e0
00c0
0300
1f80
03c0
01c0
01c0
01c0
c180
c380
fe00
ENDCHAR
STARTCHAR four
ENCODING 52
SWIDTH 636 0
DWIDTH 13 0
BBX 11 15 2 0
BITMAP
00e0
01e0
03c0
02c0
04c0
09c0
11c0
2180
4180
ffe0
ffe0
0380
0300
0300
0fc0
ENDCHAR
STARTCHAR five
ENCODING 53
SWIDTH 636 0
DWIDTH 13 0
BBX 12 15 2 0
BITMAP
1ff0
1fe0
1000
3000
2000
3e00
0700
0380
01c0
01c0
01c0
c1c0
c380
c300
fc00
ENDCHAR
STARTCHAR six
ENCODING 54
SWIDTH 636 0
DWIDTH 13 0
BBX 12 15 2 0
BITMAP
03f0
0c30
1820
3000
7000
7f80
f1c0
f0e0
e0e0
e0e0
e0e0
e1c0
6180
7380
1e00
ENDCHAR
STARTCHAR seven
ENCODING 55
SWIDTH 636 0
DWIDTH 13 0
BBX 11 15 3 0
BITMAP
7fe0
7fe0
0040
0080
0100
0300
0600
0c00
1c00
1800
3000
7000
7000
e000
e000
ENDCHAR
STARTCHAR eight
ENCODING 56
SWIDTH 636 0
DWIDTH 13 0
BBX 12 15 2 0
BITMAP
07c0
1c60
1870
3870
3860
1ec0
1f80
1fc0
33e0
61e0
e0e0
e0e0
e0c0
7180
3e00
ENDCHAR
STARTCHAR nine
ENCODING 57
SWIDTH 636 0
DWIDTH 13 0
BBX 12 15 2 0
BITMAP
0780
1cc0
3860
3070
7070
7070
7070
70f0
39e0
1ee0
00c0
01c0
c180
c300
fc00
ENDCHAR
STARTCHAR colon
ENCODING 58
SWIDTH 265 0
DWIDTH 5 0
BBX 5 11 1 0
BITMAP
38
38
38
00
00
00
00
00
e0
e0
e0
ENDCHAR
STARTCHAR semicolon
ENCODING 59
SWIDTH 265 0
DWIDTH 5 0
BBX 6 15 0 -4
BITMAP
1c
1c
38
00
00
00
00
00
00
70
70
30
30
60
c0
ENDCHAR
STARTCHAR less
ENCODING 60
SWIDTH 636 0
DWIDTH 12 0
BBX 13 13 1 0
BITMAP
0008
0038
00e0
0380
0e00
3800
e000
3800
1c00
0700
01c0
00e0
0020
ENDCHAR
STARTCHAR equal
ENCODING 61
SWIDTH 636 0
DWIDTH 12 0
BBX 13 6 1 3
BITMAP
7ff8
0000
0000
0000
0000
fff0
ENDCHAR
STARTCHAR greater
ENCODING 62
SWIDTH 636 0
DWIDTH 12 0
BBX 13 13 0 0
BITMAP
2000
3800
1c00
0700
01c0
00e0
0038
00e0
0380
0e00
3800
e000
8000
ENDCHAR
STARTCHAR question
ENCODING 63
SWIDTH 493 0
DWIDTH 10 0
BBX 9 15 3 0
BITMAP
7e00
4780
c380
0380
0300
0600
0400
1800
3000
7000
7000
0000
0000
e000
e000
ENDCHAR
STARTCHAR at
ENCODING 64
SWIDTH 861 0
DWIDTH 17 0
BBX 17 15 2 0
BITMAP
01f800
060c00
180200
21c100
623100
463100
843180
8c7100
8c6100
8ce300
8de600
873800
400000
304000
0f8000
ENDCHAR
STARTCHAR A
ENCODING 65
SWIDTH 765 0
DWIDTH 15 0
BBX 15 15 0 0
BITMAP
0060
00e0
00f0
01f0
0170
0270
0270
0438
0c38
0ff8
1838
1018
201c
601c
f07e
ENDCHAR
STARTCHAR B
ENCODING 66
SWIDTH 651 0
DWIDTH 13 0
BBX 13 15 1 0
BITMAP
1ff0
0e38
0e38
0c38
0c38
1c70
1ce0
1f80
1ce0
1870
3870
3870
3870
38e0
ffc0
ENDCHAR
STARTCHAR C
ENCODING 67
SWIDTH 740 0
DWIDTH 15 0
BBX 14 15 2 0
BITMAP
03fc
0e1c
1c0c
3808
3000
7000
7000
e000
e000
e000
e000
f000
7000
3830
1fc0
ENDCHAR
STARTCHAR D
ENCODING 68
SWIDTH 822 0
DWIDTH 16 0
BBX 16 15 1 0
BITMAP
1ff8
0e1e
0e0e
0e07
0c07
1c07
1c07
1c07
1c07
1c0e
380e
381c
3838
3870
ffc0
ENDCHAR
STARTCHAR E
ENCODING 69
SWIDTH 630 0
DWIDTH 13 0
BBX 13 15 1 0
BITMAP
1ff8
0e18
0e18
0e00
1c00
1c00
1c60
1fc0
1c40
1800
3800
3800
3820
3860
ffe0
ENDCHAR
STARTCHAR F
ENCODING 70
SWIDTH 602 0
DWIDTH 12 0
BBX 13 15 1 0
BITMAP
1ff8
0e18
0e18
0e00
1c00
1c00
1c60
1fc0
1c40
1800
3800
3800
3800
3800
fc00
ENDCHAR
STARTCHAR G
ENCODING 71
SWIDTH 780 0
DWIDTH 16 0
BBX 14 15 2 0
BITMAP
03fc
0e1c
1c0c
3808
3800
7000
7000
e000
e0fc
e070
e070
e070
7070
3860
1fc0
ENDCHAR
STARTCHAR H
ENCODING 72
SWIDTH 827 0
DWIDTH 17 0
BBX 18 15 1 0
BITMAP
1f8fc0
0e0700
0e0700
0e0700
0e0700
1c0e00
1c0e00
1ffe00
1c0e00
1c0e00
381c00
381c00
381c00
381c00
fc7e00
ENDCHAR
STARTCHAR I
ENCODING 73
SWIDTH 372 0
DWIDTH 7 0
BBX 9 15 1 0
BITMAP
1f80
0e00
0e00
0e00
0e00
1c00
1c00
1c00
1c00
1c00
3800
3800
3800
3800
fc00
ENDCHAR
STARTCHAR J
ENCODING 74
SWIDTH 478 0
DWIDTH 10 0
BBX 12 18 0 -3
BITMAP
03f0
01e0
01c0
01c0
01c0
0380
0380
0380
0380
0380
0380
0700
0700
0700
0700
ce00
cc00
f800
ENDCHAR
STARTCHAR K
ENCODING 75
SWIDTH 746 0
DWIDTH 15 0
BBX 15 15 1 0
BITMAP
1f9e
0e08
0e10
0c20
1c40
1d80
1f00
1f80
1b80
19c0
39e0
38e0
3870
3878
fcfc
ENDCHAR
STARTCHAR L
ENCODING 76
SWIDTH 611 0
DWIDTH 12 0
BBX 12 15 1 0
BITMAP
1f80
0f00
0e00
0e00
0e00
1e00
1c00
1c00
1c00
1c00
3c00
3800
3830
3830
ffe0
ENDCHAR
STARTCHAR M
ENCODING 77
SWIDTH 926 0
DWIDTH 19 0
BBX 20 15 1 0
BITMAP
1e01f0
0f01c0
0f03c0
0f03c0
0f05c0
1b8980
1b8b80
139380
139380
11e380
31c300
31c700
218700
200700
f81f80
ENDCHAR
STARTCHAR N
ENCODING 78
SWIDTH 797 0
DWIDTH 16 0
BBX 17 15 1 0
BITMAP
1e0f80
0e0200
0f0200
0f0600
0b8600
1b8400
19c400
11c400
10ec00
10ec00
307800
307800
203800
203800
f81800
ENDCHAR
STARTCHAR O
ENCODING 79
SWIDTH 831 0
DWIDTH 17 0
BBX 15 15 2 0
BITMAP
01f0
0e1c
1c0c
380e
300e
700e
700e
e00e
e00e
e01c
e01c
e038
7070
70e0
1f80
ENDCHAR
STARTCHAR P
ENCODING 80
SWIDTH 628 0
DWIDTH 13 0
BBX 14 15 0 0
BITMAP
1ff0
0e1c
0e1c
0e1c
0e1c
1e18
1c38
1c70
1fc0
1c00
3c00
3800
3800
3800
fe00
ENDCHAR
STARTCHAR Q
ENCODING 81
SWIDTH 835 0
DWIDTH 17 0
BBX 17 19 2 -4
BITMAP
01f000
0e1800
1c0c00
380e00
300e00
700e00
700e00
e00e00
e00e00
e01e00
e01c00
e03c00
707800
70f000
1fe000
018000
00c000
007000
001f80
ENDCHAR
STARTCHAR R
ENCODING 82
SWIDTH 711 0
DWIDTH 14 0
BBX 14 15 1 0
BITMAP
1ff8
0e3c
0e1c
0e1c
0e1c
1e38
1c70
1fe0
1dc0
1ce0
38e0
3870
3870
3838
fc3c
ENDCHAR
STARTCHAR S
ENCODING 83
SWIDTH 587 0
DWIDTH 12 0
BBX 12 15 1 0
BITMAP
07e0
1c30
1830
3820
3800
3c00
1f00
0f80
03c0
01c0
01e0
41c0
c1c0
c380
7e00
ENDCHAR
STARTCHAR T
ENCODING 84
SWIDTH 716 0
DWIDTH 14 0
BBX 14 15 3 0
BITMAP
fffc
c38c
c708
0700
0700
0700
0700
0e00
0e00
0e00
0e00
0e00
1c00
1c00
7f00
ENDCHAR
STARTCHAR U
ENCODING 85
SWIDTH 775 0
DWIDTH 16 0
BBX 15 15 3 0
BITMAP
fe3e
3818
7018
7018
7010
7010
7010
e010
e030
e020
e020
e020
e040
7080
3f00
ENDCHAR
STARTCHAR V
ENCODING 86
SWIDTH 741 0
DWIDTH 15 0
BBX 15 15 3 0
BITMAP
fc1e
700c
7808
3810
3810
3820
3860
3c40
1c80
1c80
1d00
1f00
0e00
0c00
0c00
ENDCHAR
STARTCHAR W
ENCODING 87
SWIDTH 922 0
DWIDTH 18 0
BBX 19 15 2 0
BITMAP
f861e0
7060c0
70e080
70e180
71e100
716300
726200
726600
367400
347c00
347800
387800
387000
307000
306000
ENDCHAR
STARTCHAR X
ENCODING 88
SWIDTH 672 0
DWIDTH 13 0
BBX 16 15 0 0
BITMAP
1f8f
0f04
070c
0718
03b0
03a0
03c0
01c0
03c0
06e0
0ce0
1870
1070
6078
f0fc
ENDCHAR
STARTCHAR Y
ENCODING 89
SWIDTH 669 0
DWIDTH 13 0
BBX 14 15 2 0
BITMAP
fc3c
7818
3830
3820
3c40
1c80
1d00
0f00
0e00
0e00
1e00
1c00
1c00
1c00
7f00
ENDCHAR
STARTCHAR Z
ENCODING 90
SWIDTH 684 0
DWIDTH 14 0
BBX 14 15 1 0
BITMAP
1ffc
1838
1878
00f0
01e0
01c0
03c0
0780
0f00
0e00
1c00
3c00
7830
7030
ffe0
ENDCHAR
STARTCHAR bracketleft
ENCODING 91
SWIDTH 336 0
DWIDTH 7 0
BBX 8 19 1 -4
BITMAP
0f
1c
1c
18
18
18
38
38
30
30
30
70
70
60
60
60
e0
e0
f8
ENDCHAR
STARTCHAR backslash
ENCODING 92
SWIDTH 515 0
DWIDTH 10 0
BBX 6 19 3 -4
BITMAP
80
40
40
40
40
20
20
20
20
30
10
10
10
10
08
08
08
08
04
ENDCHAR
STARTCHAR bracketright
ENCODING 93
SWIDTH 336 0
DWIDTH 7 0
BBX 8 19 0 -4
BITMAP
1f
07
07
06
06
06
0e
0e
0c
0c
0c
1c
1c
18
18
18
38
38
f0
ENDCHAR
STARTCHAR asciicircum
ENCODING 94
SWIDTH 636 0
DWIDTH 12 0
BBX 12 13 1 2
BITMAP
0080
0180
0180
0380
02c0
04c0
0c40
0840
1860
3060
2020
6030
c030
ENDCHAR
STARTCHAR underscore
ENCODING 95
SWIDTH 500 0
DWIDTH 10 0
BBX 8 1 1 -2
BITMAP
ff
ENDCHAR
STARTCHAR grave
ENCODING 96
SWIDTH 599 0
DWIDTH 12 0
BBX 4 3 7 12
BITMAP
e0
60
30
ENDCHAR
STARTCHAR a
ENCODING 97
SWIDTH 634 0
DWIDTH 13 0
BBX 12 11 1 0
BITMAP
07f0
0870
3070
30e0
70e0
61e0
e1e0
e2e0
e5c0
f9c0
71f0
ENDCHAR
STARTCHAR b
ENCODING 98
SWIDTH 633 0
DWIDTH 13 0
BBX 12 15 2 0
BITMAP
7c00
1c00
1c00
3800
38e0
39f0
3a70
3c70
7870
7860
70e0
70c0
6080
f100
fe00
ENDCHAR
STARTCHAR c
ENCODING 99
SWIDTH 524 0
DWIDTH 10 0
BBX 10 11 2 0
BITMAP
07c0
18c0
30c0
70c0
6000
e000
e000
e000
e000
7080
3f00
ENDCHAR
STARTCHAR d
ENCODING 100
SWIDTH 634 0
DWIDTH 13 0
BBX 13 15 1 0
BITMAP
00f8
0038
0070
0070
07f0
0870
1070
30e0
70e0
60e0
e1e0
e2e0
e5c0
f9c0
71f0
ENDCHAR
STARTCHAR e
ENCODING 101
SWIDTH 548 0
DWIDTH 11 0
BBX 10 11 2 0
BITMAP
0780
19c0
31c0
71c0
6380
e700
fe00
e000
e000
70c0
3f00
ENDCHAR
STARTCHAR f
ENCODING 102
SWIDTH 415 0
DWIDTH 8 0
BBX 11 20 1 -4
BITMAP
03e0
0660
0c60
0c00
1c00
7f80
1c00
3800
3800
3800
3800
3800
7000
7000
7000
7000
7000
e000
e000
e000
ENDCHAR
STARTCHAR g
ENCODING 103
SWIDTH 628 0
DWIDTH 13 0
BBX 12 15 1 -4
BITMAP
03f0
0c70
1870
3860
30e0
70e0
71e0
72e0
77c0
7dc0
79c0
01c0
8180
e300
7c00
ENDCHAR
STARTCHAR h
ENCODING 104
SWIDTH 656 0
DWIDTH 13 0
BBX 11 15 2 0
BITMAP
7c00
1800
3800
3800
39c0
3be0
36e0
74e0
78e0
71c0
71c0
61c0
e1c0
e1c0
e1e0
ENDCHAR
STARTCHAR i
ENCODING 105
SWIDTH 319 0
DWIDTH 6 0
BBX 6 15 2 0
BITMAP
1c
1c
1c
00
f8
38
38
30
70
70
70
70
60
e0
f8
ENDCHAR
STARTCHAR j
ENCODING 106
SWIDTH 381 0
DWIDTH 8 0
BBX 11 19 -1 -4
BITMAP
00e0
00e0
00e0
0000
07c0
01c0
01c0
0380
0380
0380
0380
0380
0700
0700
0700
0600
c600
cc00
f800
ENDCHAR
STARTCHAR k
ENCODING 107
SWIDTH 626 0
DWIDTH 13 0
BBX 11 15 2 0
BITMAP
7c00
1c00
1800
3800
38e0
38e0
39c0
3380
7e00
7e00
7700
7700
6380
e3c0
e1e0
ENDCHAR
STARTCHAR l
ENCODING 108
SWIDTH 319 0
DWIDTH 6 0
BBX 6 15 2 0
BITMAP
7c
1c
18
38
38
38
38
30
70
70
70
70
60
e0
f8
ENDCHAR
STARTCHAR m
ENCODING 109
SWIDTH 969 0
DWIDTH 19 0
BBX 18 11 2 0
BITMAP
f8e380
3be7c0
3eedc0
34f9c0
78f1c0
70e380
70e380
61c380
61c380
e1c380
e1c7c0
ENDCHAR
STARTCHAR n
ENCODING 110
SWIDTH 656 0
DWIDTH 13 0
BBX 11 11 2 0
BITMAP
f9c0
3be0
36e0
74e0
78e0
71c0
71c0
61c0
e1c0
e1c0
e1e0
ENDCHAR
STARTCHAR o
ENCODING 111
SWIDTH 599 0
DWIDTH 12 0
BBX 11 11 2 0
BITMAP
0780
18c0
30e0
70e0
70e0
e0e0
e0c0
e1c0
e180
7300
3c00
ENDCHAR
STARTCHAR p
ENCODING 112
SWIDTH 639 0
DWIDTH 13 0
BBX 12 15 1 -4
BITMAP
7ce0
39f0
3a70
3c70
3c70
3870
30e0
70e0
70c0
7180
7e00
6000
e000
e000
e000
ENDCHAR
STARTCHAR q
ENCODING 113
SWIDTH 630 0
DWIDTH 13 0
BBX 12 15 1 -4
BITMAP
07f0
0870
3070
30e0
70e0
61e0
e1e0
e2e0
e5c0
f9c0
71c0
01c0
01c0
0380
0380
ENDCHAR
STARTCHAR r
ENCODING 114
SWIDTH 496 0
DWIDTH 10 0
BBX 10 11 2 0
BITMAP
f8c0
3b80
3b80
7400
7800
7800
7000
7000
e000
e000
e000
ENDCHAR
STARTCHAR s
ENCODING 115
SWIDTH 479 0
DWIDTH 10 0
BBX 9 11 1 0
BITMAP
0f80
3880
3880
3800
3c00
1e00
0f00
0700
c700
c700
7c00
ENDCHAR
STARTCHAR t
ENCODING 116
SWIDTH 375 0
DWIDTH 7 0
BBX 7 14 2 0
BITMAP
18
38
38
fe
70
70
70
70
70
e0
e0
e0
e8
78
ENDCHAR
STARTCHAR u
ENCODING 117
SWIDTH 655 0
DWIDTH 13 0
BBX 11 11 2 0
BITMAP
f1e0
70e0
70e0
70c0
71c0
71c0
e3c0
e5c0
ed80
fb80
73e0
ENDCHAR
STARTCHAR v
ENCODING 118
SWIDTH 584 0
DWIDTH 12 0
BBX 12 11 1 0
BITMAP
f0f0
7070
3870
3860
38c0
1c80
1d00
1e00
1e00
1c00
1800
ENDCHAR
STARTCHAR w
ENCODING 119
SWIDTH 822 0
DWIDTH 16 0
BBX 16 11 2 0
BITMAP
f087
7087
31c6
39c6
3bc4
3ae8
3ef8
1cf0
18e0
1860
1040
ENDCHAR
STARTCHAR x
ENCODING 120
SWIDTH 534 0
DWIDTH 11 0
BBX 11 11 1 0
BITMAP
78e0
1c60
1cc0
0e80
0f00
0600
1f00
3700
6380
c380
e1e0
ENDCHAR
STARTCHAR y
ENCODING 121
SWIDTH 586 0
DWIDTH 12 0
BBX 14 15 0 -4
BITMAP
3c3c
1e1c
0e1c
0e18
0e10
0720
0740
07c0
0780
0700
0600
0400
0800
3800
f000
ENDCHAR
STARTCHAR z
ENCODING 122
SWIDTH 567 0
DWIDTH 11 0
BBX 11 11 1 0
BITMAP
3fe0
31c0
23c0
0380
0700
0e00
1c00
3800
7840
70c0
ff80
ENDCHAR
STARTCHAR braceleft
ENCODING 123
SWIDTH 361 0
DWIDTH 7 0
BBX 7 19 2 -4
BITMAP
0e
1c
18
38
38
38
38
38
30
c0
60
30
70
70
60
e0
e0
e0
70
ENDCHAR
STARTCHAR bar
ENCODING 124
SWIDTH 253 0
DWIDTH 5 0
BBX 5 19 1 -4
BITMAP
18
18
18
10
10
30
30
30
20
20
20
60
60
60
40
40
c0
c0
c0
ENDCHAR
STARTCHAR braceright
ENCODING 125
SWIDTH 361 0
DWIDTH 7 0
BBX 7 19 1 -4
BITMAP
1c
0e
0e
0e
0e
1c
1c
18
0c
06
18
38
38
38
38
38
30
70
e0
ENDCHAR
STARTCHAR asciitilde
ENCODING 126
SWIDTH 636 0
DWIDTH 12 0
BBX 12 5 1 3
BITMAP
3810
4c10
8610
8320
81c0
ENDCHAR
STARTCHAR nobreakspace
ENCODING 160
SWIDTH 333 0
DWIDTH 6 0
BBX 1 1 0 0
BITMAP
00
ENDCHAR
STARTCHAR Aogonek
ENCODING 161
SWIDTH 765 0
DWIDTH 15 0
BBX 15 18 0 -3
BITMAP
0060
00e0
00f0
01f0
0170
0270
0270
0438
0c38
0ff8
1838
1018
201c
601c
f07e
0180
0300
03c0
ENDCHAR
STARTCHAR breve
ENCODING 162
SWIDTH 599 0
DWIDTH 12 0
BBX 7 3 6 12
BITMAP
82
fc
78
ENDCHAR
STARTCHAR Lstroke
ENCODING 163
SWIDTH 611 0
DWIDTH 12 0
BBX 12 15 1 0
BITMAP
1f80
0f00
0e00
0e00
0e00
1e80
1f00
7c00
5c00
1c00
3c00
3800
3830
3830
ffe0
ENDCHAR
STARTCHAR currency
ENCODING 164
SWIDTH 636 0
DWIDTH 13 0
BBX 14 13 1 1
BITMAP
2004
100c
0fd0
0460
0820
1830
1030
1020
1860
18c0
3fe0
4020
8010
ENDCHAR
STARTCHAR Lcaron
ENCODING 165
SWIDTH 720 0
DWIDTH 14 0
BBX 14 17 1 0
BITMAP
001c
001c
1f9c
0f08
0e18
0e30
0e00
1e00
1c00
1c00
1c00
1c00
3c00
3800
3830
3830
ffe0
ENDCHAR
STARTCHAR Sacute
ENCODING 166
SWIDTH 587 0
DWIDTH 12 0
BBX 12 19 1 0
BITMAP
0070
00c0
0180
0000
07e0
1c30
1830
3820
3800
3c00
1f00
0f80
03c0
01c0
01e0
41c0
c1c0
c380
7e00
ENDCHAR
STARTCHAR section
ENCODING 167
SWIDTH 636 0
DWIDTH 13 0
BBX 12 19 1 -4
BITMAP
07f0
0c30
1830
1800
1c00
1f00
0f80
13c0
30e0
7060
3840
3ec0
1f80
07c0
01c0
01c0
c1c0
c380
fe00
ENDCHAR
STARTCHAR diaeresis
ENCODING 168
SWIDTH 599 0
DWIDTH 12 0
BBX 6 2 6 13
BITMAP
cc
cc
ENDCHAR
STARTCHAR Scaron
ENCODING 169
SWIDTH 587 0
DWIDTH 12 0
BBX 12 19 1 0
BITMAP
0630
03e0
03c0
0000
07e0
1c30
1830
3820
3800
3c00
1f00
0f80
03c0
01c0
01e0
41c0
c1c0
c380
7e00
ENDCHAR
STARTCHAR Scedilla
ENCODING 170
SWIDTH 587 0
DWIDTH 12 0
BBX 12 20 1 -5
BITMAP
07e0
1c30
1830
3820
3800
3c00
1f00
0f80
03c0
01c0
01e0
41c0
c1c0
c380
7e00
0200
0400
0300
0300
0e00
ENDCHAR
STARTCHAR Tcaron
ENCODING 171
SWIDTH 716 0
DWIDTH 14 0
BBX 14 19 3 0
BITMAP
0630
03e0
03c0
0000
fffc
c38c
c708
0700
0700
0700
0700
0e00
0e00
0e00
0e00
0e00
1c00
1c00
7f00
ENDCHAR
STARTCHAR Zacute
ENCODING 172
SWIDTH 684 0
DWIDTH 14 0
BBX 14 19 1 0
BITMAP
0038
0060
00c0
0000
1ffc
1838
1878
00f0
01e0
01c0
03c0
0780
0f00
0e00
1c00
3c00
7830
7030
ffe0
ENDCHAR
STARTCHAR hyphen
ENCODING 173
SWIDTH 289 0
DWIDTH 6 0
BBX 5 1 2 7
BITMAP
f8
ENDCHAR
STARTCHAR Zcaron
ENCODING 174
SWIDTH 684 0
DWIDTH 14 0
BBX 14 19 1 0
BITMAP
0318
01f0
01e0
0000
1ffc
1838
1878
00f0
01e0
01c0
03c0
0780
0f00
0e00
1c00
3c00
7830
7030
ffe0
ENDCHAR
STARTCHAR Zabovedot
ENCODING 175
SWIDTH 684 0
DWIDTH 14 0
BBX 14 18 1 0
BITMAP
01c0
01c0
0000
1ffc
1838
1878
00f0
01e0
01c0
03c0
0780
0f00
0e00
1c00
3c00
7830
7030
ffe0
ENDCHAR
STARTCHAR degree
ENCODING 176
SWIDTH 259 0
DWIDTH 5 0
BBX 3 4 4 11
BITMAP
60
a0
a0
60
ENDCHAR
STARTCHAR aogonek
ENCODING 177
SWIDTH 634 0
DWIDTH 13 0
BBX 12 14 1 -3
BITMAP
07f0
0870
3070
30e0
70e0
61e0
e1e0
e2e0
e5c0
f9c0
71f0
0600
0c00
0f00
ENDCHAR
STARTCHAR ogonek
ENCODING 178
SWIDTH 599 0
DWIDTH 12 0
BBX 4 3 4 -4
BITMAP
60
c0
f0
ENDCHAR
STARTCHAR lstroke
ENCODING 179
SWIDTH 319 0
DWIDTH 6 0
BBX 8 15 1 0
BITMAP
3e
0e
1e
1c
1c
1c
1f
3c
f8
38
38
38
70
70
7c
ENDCHAR
STARTCHAR acute
ENCODING 180
SWIDTH 599 0
DWIDTH 12 0
BBX 5 3 7 12
BITMAP
38
60
c0
ENDCHAR
STARTCHAR lcaron
ENCODING 181
SWIDTH 565 0
DWIDTH 11 0
BBX 11 17 2 0
BITMAP
00e0
00e0
7ce0
1c40
18c0
3980
3800
3800
3800
3000
7000
7000
7000
7000
6000
e000
f800
ENDCHAR
STARTCHAR sacute
ENCODING 182
SWIDTH 479 0
DWIDTH 10 0
BBX 10 15 1 0
BITMAP
01c0
0300
0600
0000
0f80
3880
3880
3800
3c00
1e00
0f00
0700
c700
c700
7c00
ENDCHAR
STARTCHAR caron
ENCODING 183
SWIDTH 599 0
DWIDTH 12 0
BBX 7 3 6 12
BITMAP
c6
7c
78
ENDCHAR
STARTCHAR cedilla
ENCODING 184
SWIDTH 599 0
DWIDTH 12 0
BBX 4 5 3 -4
BITMAP
20
40
30
30
e0
ENDCHAR
STARTCHAR scaron
ENCODING 185
SWIDTH 479 0
DWIDTH 10 0
BBX 10 15 1 0
BITMAP
18c0
0f80
0f00
0000
0f80
3880
3880
3800
3c00
1e00
0f00
0700
c700
c700
7c00
ENDCHAR
STARTCHAR scedilla
ENCODING 186
SWIDTH 479 0
DWIDTH 10 0
BBX 9 16 1 -5
BITMAP
0f80
3880
3880
3800
3c00
1e00
0f00
0700
c700
c700
7c00
0400
0800
0600
0600
1c00
ENDCHAR
STARTCHAR tcaron
ENCODING 187
SWIDTH 514 0
DWIDTH 10 0
BBX 10 18 2 0
BITMAP
01c0
01c0
01c0
0080
1980
3b00
3800
fe00
7000
7000
7000
7000
7000
e000
e000
e000
e800
7800
ENDCHAR
STARTCHAR zacute
ENCODING 188
SWIDTH 567 0
DWIDTH 11 0
BBX 11 15 1 0
BITMAP
00e0
0180
0300
0000
3fe0
31c0
23c0
0380
0700
0e00
1c00
3800
7840
70c0
ff80
ENDCHAR
STARTCHAR doubleacute
ENCODING 189
SWIDTH 599 0
DWIDTH 12 0
BBX 7 3 7 12
BITMAP
36
68
90
ENDCHAR
STARTCHAR zcaron
ENCODING 190
SWIDTH 567 0
DWIDTH 11 0
BBX 11 15 1 0
BITMAP
0c60
07c0
0780
0000
3fe0
31c0
23c0
0380
0700
0e00
1c00
3800
7840
70c0
ff80
ENDCHAR
STARTCHAR zabovedot
ENCODING 191
SWIDTH 567 0
DWIDTH 11 0
BBX 11 14 1 0
BITMAP
0700
0700
0000
3fe0
31c0
23c0
0380
0700
0e00
1c00
3800
7840
70c0
ff80
ENDCHAR
STARTCHAR Racute
ENCODING 192
SWIDTH 711 0
DWIDTH 14 0
BBX 14 19 1 0
BITMAP
0038
0060
00c0
0000
1ff8
0e3c
0e1c
0e1c
0e1c
1e38
1c70
1fe0
1dc0
1ce0
38e0
3870
3870
3838
fc3c
ENDCHAR
STARTCHAR Aacute
ENCODING 193
SWIDTH 765 0
DWIDTH 15 0
BBX 15 19 0 0
BITMAP
001c
0030
0060
0000
0060
00e0
00f0
01f0
0170
0270
0270
0438
0c38
0ff8
1838
1018
201c
601c
f07e
ENDCHAR
STARTCHAR Acircumflex
ENCODING 194
SWIDTH 765 0
DWIDTH 15 0
BBX 15 19 0 0
BITMAP
0078
00f8
018c
0000
0060
00e0
00f0
01f0
0170
0270
0270
0438
0c38
0ff8
1838
1018
201c
601c
f07e
ENDCHAR
STARTCHAR Abreve
ENCODING 195
SWIDTH 765 0
DWIDTH 15 0
BBX 15 19 0 0
BITMAP
0082
00fc
0078
0000
0060
00e0
00f0
01f0
0170
0270
0270
0438
0c38
0ff8
1838
1018
201c
601c
f07e
ENDCHAR
STARTCHAR Adiaeresis
ENCODING 196
SWIDTH 765 0
DWIDTH 15 0
BBX 15 18 0 0
BITMAP
00cc
00cc
0000
0060
00e0
00f0
01f0
0170
0270
0270
0438
0c38
0ff8
1838
1018
201c
601c
f07e
ENDCHAR
STARTCHAR Lacute
ENCODING 197
SWIDTH 611 0
DWIDTH 12 0
BBX 12 19 1 0
BITMAP
00e0
0180
0300
0000
1f80
0f00
0e00
0e00
0e00
1e00
1c00
1c00
1c00
1c00
3c00
3800
3830
3830
ffe0
ENDCHAR
STARTCHAR Cacute
ENCODING 198
SWIDTH 740 0
DWIDTH 15 0
BBX 14 19 2 0
BITMAP
0038
0060
00c0
0000
03fc
0e1c
1c0c
3808
3000
7000
7000
e000
e000
e000
e000
f000
7000
3830
1fc0
ENDCHAR
STARTCHAR Ccedilla
ENCODING 199
SWIDTH 740 0
DWIDTH 15 0
BBX 14 19 2 -4
BITMAP
03fc
0e1c
1c0c
3808
3000
7000
7000
e000
e000
e000
e000
f000
7000
3830
1fc0
1000
0c00
0c00
3800
ENDCHAR
STARTCHAR Ccaron
ENCODING 200
SWIDTH 740 0
DWIDTH 15 0
BBX 14 19 2 0
BITMAP
0318
01f0
01e0
0000
03fc
0e1c
1c0c
3808
3000
7000
7000
e000
e000
e000
e000
f000
7000
3830
1fc0
ENDCHAR
STARTCHAR Eacute
ENCODING 201
SWIDTH 630 0
DWIDTH 13 0
BBX 13 19 1 0
BITMAP
0070
00c0
0180
0000
1ff8
0e18
0e18
0e00
1c00
1c00
1c60
1fc0
1c40
1800
3800
3800
3820
3860
ffe0
ENDCHAR
STARTCHAR Eogonek
ENCODING 202
SWIDTH 630 0
DWIDTH 13 0
BBX 13 18 1 -3
BITMAP
1ff8
0e18
0e18
0e00
1c00
1c00
1c60
1fc0
1c40
1800
3800
3800
3820
3860
ffe0
0300
0600
0780
ENDCHAR
STARTCHAR Ediaeresis
ENCODING 203
SWIDTH 630 0
DWIDTH 13 0
BBX 13 18 1 0
BITMAP
0330
0330
0000
1ff8
0e18
0e18
0e00
1c00
1c00
1c60
1fc0
1c40
1800
3800
3800
3820
3860
ffe0
ENDCHAR
STARTCHAR Ecaron
ENCODING 204
SWIDTH 630 0
DWIDTH 13 0
BBX 13 19 1 0
BITMAP
0318
01f0
01e0
0000
1ff8
0e18
0e18
0e00
1c00
1c00
1c60
1fc0
1c40
1800
3800
3800
3820
3860
ffe0
ENDCHAR
STARTCHAR Iacute
ENCODING 205
SWIDTH 372 0
DWIDTH 7 0
BBX 10 19 1 0
BITMAP
01c0
0300
0600
0000
1f80
0e00
0e00
0e00
0e00
1c00
1c00
1c00
1c00
1c00
3800
3800
3800
3800
fc00
ENDCHAR
STARTCHAR Icircumflex
ENCODING 206
SWIDTH 372 0
DWIDTH 7 0
BBX 10 19 1 0
BITMAP
0780
0f80
18c0
0000
1f80
0e00
0e00
0e00
0e00
1c00
1c00
1c00
1c00
1c00
3800
3800
3800
3800
fc00
ENDCHAR
STARTCHAR Dcaron
ENCODING 207
SWIDTH 822 0
DWIDTH 16 0
BBX 16 19 1 0
BITMAP
018c
00f8
00f0
0000
1ff8
0e1e
0e0e
0e07
0c07
1c07
1c07
1c07
1c07
1c0e
380e
381c
3838
3870
ffc0
ENDCHAR
STARTCHAR Dstroke
ENCODING 208
SWIDTH 822 0
DWIDTH 16 0
BBX 16 15 1 0
BITMAP
1ff8
0e1e
0e0e
0e07
1e07
1c07
1c07
7f87
1c07
1c0e
380e
381c
3838
3870
ffc0
ENDCHAR
STARTCHAR Nacute
ENCODING 209
SWIDTH 797 0
DWIDTH 16 0
BBX 17 19 1 0
BITMAP
000e00
001800
003000
000000
1e0f80
0e0200
0f0200
0f0600
0b8600
1b8400
19c400
11c400
10ec00
10ec00
307800
307800
203800
203800
f81800
ENDCHAR
STARTCHAR Ncaron
ENCODING 210
SWIDTH 797 0
DWIDTH 16 0
BBX 17 19 1 0
BITMAP
00c600
007c00
007800
000000
1e0f80
0e0200
0f0200
0f0600
0b8600
1b8400
19c400
11c400
10ec00
10ec00
307800
307800
203800
203800
f81800
ENDCHAR
STARTCHAR Oacute
ENCODING 211
SWIDTH 831 0
DWIDTH 17 0
BBX 15 19 2 0
BITMAP
0038
0060
00c0
0000
01f0
0e1c
1c0c
380e
300e
700e
700e
e00e
e00e
e01c
e01c
e038
7070
70e0
1f80
ENDCHAR
STARTCHAR Ocircumflex
ENCODING 212
SWIDTH 831 0
DWIDTH 17 0
BBX 15 19 2 0
BITMAP
00f0
01f0
0318
0000
01f0
0e1c
1c0c
380e
300e
700e
700e
e00e
e00e
e01c
e01c
e038
7070
70e0
1f80
ENDCHAR
STARTCHAR Odoubleacute
ENCODING 213
SWIDTH 831 0
DWIDTH 17 0
BBX 15 19 2 0
BITMAP
006c
00d0
0120
0000
01f0
0e1c
1c0c
380e
300e
700e
700e
e00e
e00e
e01c
e01c
e038
7070
70e0
1f80
ENDCHAR
STARTCHAR Odiaeresis
ENCODING 214
SWIDTH 831 0
DWIDTH 17 0
BBX 15 18 2 0
BITMAP
0330
0330
0000
01f0
0e1c
1c0c
380e
300e
700e
700e
e00e
e00e
e01c
e01c
e038
7070
70e0
1f80
ENDCHAR
STARTCHAR multiply
ENCODING 215
SWIDTH 636 0
DWIDTH 12 0
BBX 13 13 1 0
BITMAP
2008
3018
1830
0860
0cc0
0700
0200
0700
1980
3080
60c0
c060
8020
ENDCHAR
STARTCHAR Rcaron
ENCODING 216
SWIDTH 711 0
DWIDTH 14 0
BBX 14 19 1 0
BITMAP
0318
01f0
01e0
0000
1ff8
0e3c
0e1c
0e1c
0e1c
1e38
1c70
1fe0
1dc0
1ce0
38e0
3870
3870
3838
fc3c
ENDCHAR
STARTCHAR Uring
ENCODING 217
SWIDTH 775 0
DWIDTH 16 0
BBX 15 19 3 0
BITMAP
0380
0280
0380
0000
fe3e
3818
7018
7018
7010
7010
7010
e010
e030
e020
e020
e020
e040
7080
3f00
ENDCHAR
STARTCHAR Uacute
ENCODING 218
SWIDTH 775 0
DWIDTH 16 0
BBX 15 19 3 0
BITMAP
00e0
0180
0300
0000
fe3e
3818
7018
7018
7010
7010
7010
e010
e030
e020
e020
e020
e040
7080
3f00
ENDCHAR
STARTCHAR Udoubleacute
ENCODING 219
SWIDTH 775 0
DWIDTH 16 0
BBX 15 19 3 0
BITMAP
00d8
01a0
0240
0000
fe3e
3818
7018
7018
7010
7010
7010
e010
e030
e020
e020
e020
e040
7080
3f00
ENDCHAR
STARTCHAR Udiaeresis
ENCODING 220
SWIDTH 775 0
DWIDTH 16 0
BBX 15 18 3 0
BITMAP
0660
0660
0000
fe3e
3818
7018
7018
7010
7010
7010
e010
e030
e020
e020
e020
e040
7080
3f00
ENDCHAR
STARTCHAR Yacute
ENCODING 221
SWIDTH 669 0
DWIDTH 13 0
BBX 14 19 2 0
BITMAP
00e0
0180
0300
0000
fc3c
7818
3830
3820
3c40
1c80
1d00
0f00
0e00
0e00
1e00
1c00
1c00
1c00
7f00
ENDCHAR
STARTCHAR Tcedilla
ENCODING 222
SWIDTH 716 0
DWIDTH 14 0
BBX 14 20 3 -5
BITMAP
fffc
c38c
c708
0700
0700
0700
0700
0e00
0e00
0e00
0e00
0e00
1c00
1c00
7f00
0100
0200
0180
0180
0700
ENDCHAR
STARTCHAR ssharp
ENCODING 223
SWIDTH 656 0
DWIDTH 13 0
BBX 12 20 1 -4
BITMAP
03c0
0e60
0c70
1c60
1c40
1c80
1900
3b80
3bc0
39e0
38e0
3870
7030
7230
7660
77c0
7000
e000
e000
e000
ENDCHAR
STARTCHAR racute
ENCODING 224
SWIDTH 496 0
DWIDTH 10 0
BBX 10 15 2 0
BITMAP
01c0
0300
0600
0000
f8c0
3b80
3b80
7400
7800
7800
7000
7000
e000
e000
e000
ENDCHAR
STARTCHAR aacute
ENCODING 225
SWIDTH 634 0
DWIDTH 13 0
BBX 12 15 1 0
BITMAP
0070
00c0
0180
0000
07f0
0870
3070
30e0
70e0
61e0
e1e0
e2e0
e5c0
f9c0
71f0
ENDCHAR
STARTCHAR acircumflex
ENCODING 226
SWIDTH 634 0
DWIDTH 13 0
BBX 12 15 1 0
BITMAP
03c0
07c0
0c60
0000
07f0
0870
3070
30e0
70e0
61e0
e1e0
e2e0
e5c0
f9c0
71f0
ENDCHAR
STARTCHAR abreve
ENCODING 227
SWIDTH 634 0
DWIDTH 13 0
BBX 13 15 1 0
BITMAP
0208
03f0
01e0
0000
07f0
0870
3070
30e0
70e0
61e0
e1e0
e2e0
e5c0
f9c0
71f0
ENDCHAR
STARTCHAR adiaeresis
ENCODING 228
SWIDTH 634 0
DWIDTH 13 0
BBX 12 14 1 0
BITMAP
0660
0660
0000
07f0
0870
3070
30e0
70e0
61e0
e1e0
e2e0
e5c0
f9c0
71f0
ENDCHAR
STARTCHAR lacute
ENCODING 229
SWIDTH 319 0
DWIDTH 6 0
BBX 8 19 2 0
BITMAP
07
0c
18
00
7c
1c
18
38
38
38
38
30
70
70
70
70
60
e0
f8
ENDCHAR
STARTCHAR cacute
ENCODING 230
SWIDTH 524 0
DWIDTH 10 0
BBX 11 15 2 0
BITMAP
00e0
0180
0300
0000
07c0
18c0
30c0
70c0
6000
e000
e000
e000
e000
7080
3f00
ENDCHAR
STARTCHAR ccedilla
ENCODING 231
SWIDTH 524 0
DWIDTH 10 0
BBX 10 15 2 -4
BITMAP
07c0
18c0
30c0
70c0
6000
e000
e000
e000
e000
7080
3f00
2000
1800
1800
7000
ENDCHAR
STARTCHAR ccaron
ENCODING 232
SWIDTH 524 0
DWIDTH 10 0
BBX 11 15 2 0
BITMAP
0c60
07c0
0780
0000
07c0
18c0
30c0
70c0
6000
e000
e000
e000
e000
7080
3f00
ENDCHAR
STARTCHAR eacute
ENCODING 233
SWIDTH 548 0
DWIDTH 11 0
BBX 10 15 2 0
BITMAP
01c0
0300
0600
0000
0780
19c0
31c0
71c0
6380
e700
fe00
e000
e000
70c0
3f00
ENDCHAR
STARTCHAR eogonek
ENCODING 234
SWIDTH 548 0
DWIDTH 11 0
BBX 10 14 2 -3
BITMAP
0780
19c0
31c0
71c0
6380
e700
fe00
e000
e000
70c0
3f00
0c00
1800
1e00
ENDCHAR
STARTCHAR ediaeresis
ENCODING 235
SWIDTH 548 0
DWIDTH 11 0
BBX 10 14 2 0
BITMAP
0cc0
0cc0
0000
0780
19c0
31c0
71c0
6380
e700
fe00
e000
e000
70c0
3f00
ENDCHAR
STARTCHAR ecaron
ENCODING 236
SWIDTH 548 0
DWIDTH 11 0
BBX 11 15 2 0
BITMAP
0c60
07c0
0780
0000
0780
19c0
31c0
71c0
6380
e700
fe00
e000
e000
70c0
3f00
ENDCHAR
STARTCHAR iacute
ENCODING 237
SWIDTH 319 0
DWIDTH 6 0
BBX 8 15 2 0
BITMAP
07
0c
18
00
f8
38
38
70
70
70
70
70
e0
e0
f8
ENDCHAR
STARTCHAR icircumflex
ENCODING 238
SWIDTH 319 0
DWIDTH 6 0
BBX 8 15 2 0
BITMAP
1e
3e
63
00
f8
38
38
70
70
70
70
70
e0
e0
f8
ENDCHAR
STARTCHAR dcaron
ENCODING 239
SWIDTH 925 0
DWIDTH 18 0
BBX 18 17 1 0
BITMAP
0001c0
0001c0
00f9c0
003880
007180
007300
07f000
087000
107000
30e000
70e000
60e000
e1e000
e2e000
e5c000
f9c000
71f000
ENDCHAR
STARTCHAR dstroke
ENCODING 240
SWIDTH 874 0
DWIDTH 17 0
BBX 17 15 1 0
BITMAP
00f800
003800
07ff80
007000
07f000
087000
107000
30e000
70e000
60e000
e1e000
e2e000
e5c000
f9c000
71f000
ENDCHAR
STARTCHAR nacute
ENCODING 241
SWIDTH 656 0
DWIDTH 13 0
BBX 11 15 2 0
BITMAP
01c0
0300
0600
0000
f9c0
3be0
36e0
74e0
78e0
71c0
71c0
61c0
e1c0
e1c0
e1e0
ENDCHAR
STARTCHAR ncaron
ENCODING 242
SWIDTH 656 0
DWIDTH 13 0
BBX 11 15 2 0
BITMAP
18c0
0f80
0f00
0000
f9c0
3be0
36e0
74e0
78e0
71c0
71c0
61c0
e1c0
e1c0
e1e0
ENDCHAR
STARTCHAR oacute
ENCODING 243
SWIDTH 599 0
DWIDTH 12 0
BBX 11 15 2 0
BITMAP
00e0
0180
0300
0000
0780
18c0
30e0
70e0
70e0
e0e0
e0c0
e1c0
e180
7300
3c00
ENDCHAR
STARTCHAR ocircumflex
ENCODING 244
SWIDTH 599 0
DWIDTH 12 0
BBX 11 15 2 0
BITMAP
03c0
07c0
0c60
0000
0780
18c0
30e0
70e0
70e0
e0e0
e0c0
e1c0
e180
7300
3c00
ENDCHAR
STARTCHAR odoubleacute
ENCODING 245
SWIDTH 599 0
DWIDTH 12 0
BBX 12 15 2 0
BITMAP
01b0
0340
0480
0000
0780
18c0
30e0
70e0
70e0
e0e0
e0c0
e1c0
e180
7300
3c00
ENDCHAR
STARTCHAR odiaeresis
ENCODING 246
SWIDTH 599 0
DWIDTH 12 0
BBX 11 14 2 0
BITMAP
0660
0660
0000
0780
18c0
30e0
70e0
70e0
e0e0
e0c0
e1c0
e180
7300
3c00
ENDCHAR
STARTCHAR division
ENCODING 247
SWIDTH 636 0
DWIDTH 12 0
BBX 12 11 1 0
BITMAP
0300
0700
0000
0000
0000
fff0
0000
0000
0000
0c00
0c00
ENDCHAR
STARTCHAR rcaron
ENCODING 248
SWIDTH 496 0
DWIDTH 10 0
BBX 10 15 2 0
BITMAP
18c0
0f80
0f00
0000
f8c0
3b80
3b80
7400
7800
7800
7000
7000
e000
e000
e000
ENDCHAR
STARTCHAR uring
ENCODING 249
SWIDTH 655 0
DWIDTH 13 0
BBX 11 15 2 0
BITMAP
0e00
0a00
0e00
0000
f1e0
70e0
70e0
70c0
71c0
71c0
e3c0
e5c0
ed80
fb80
73e0
ENDCHAR
STARTCHAR uacute
ENCODING 250
SWIDTH 655 0
DWIDTH 13 0
BBX 11 15 2 0
BITMAP
00e0
0180
0300
0000
f1e0
70e0
70e0
70c0
71c0
71c0
e3c0
e5c0
ed80
fb80
73e0
ENDCHAR
STARTCHAR udoubleacute
ENCODING 251
SWIDTH 655 0
DWIDTH 13 0
BBX 11 15 2 0
BITMAP
0360
0680
0900
0000
f1e0
70e0
70e0
70c0
71c0
71c0
e3c0
e5c0
ed80
fb80
73e0
ENDCHAR
STARTCHAR udiaeresis
ENCODING 252
SWIDTH 655 0
DWIDTH 13 0
BBX 11 14 2 0
BITMAP
0cc0
0cc0
0000
f1e0
70e0
70e0
70c0
71c0
71c0
e3c0
e5c0
ed80
fb80
73e0
ENDCHAR
STARTCHAR yacute
ENCODING 253
SWIDTH 586 0
DWIDTH 12 0
BBX 14 19 0 -4
BITMAP
0038
0060
00c0
0000
3c3c
1e1c
0e1c
0e18
0e10
0720
0740
07c0
0780
0700
0600
0400
0800
3800
f000
ENDCHAR
STARTCHAR tcedilla
ENCODING 254
SWIDTH 375 0
DWIDTH 7 0
BBX 7 19 2 -5
BITMAP
18
38
38
fe
70
70
70
70
70
e0
e0
e0
e8
78
08
10
0c
0c
38
ENDCHAR
STARTCHAR abovedot
ENCODING 255
SWIDTH 599 0
DWIDTH 12 0
BBX 3 2 7 13
BITMAP
e0
e0
ENDCHAR
ENDFONT
